:SAMPLES-PER-SECOND 30
:FULLY-SPECIFIED
:DEGREES
222
root  4.72736 38.6791 -44.749 177.618 7.88547 175.709
RightUpLeg  -22.7211 -5.93243 -3.10877
RightLeg  64.0475 11.2576 -12.0537
RightFoot  5.03541 0.297136 -2.02444
RightToes  3.97569e-016 -3.18055e-015 -2.98177e-016
Spine  9.76708 1.72107 0.985379
Spine1  5.77763 3.7613 -9.99075
HEad  -6.89149 0.0919053 -0.677447
LeftShoulder1  -3.88251e-019 9.70628e-020 -3.87848e-018
LeftArm  -23.3714 51.6735 -65.5544
LeftForeArm  3.97186 -11.233 -3.12986
LeftHand  -0.890512 -3.05407 13.0668
RightShoulder  8.24186 10.831 38.3925
RightArm  27.953 -35.9341 26.0943
RightForeArm  -5.09829 25.2623 -13.3114
RightHand  -1.55181 5.14515 -16.9157
LeftUpLeg  -11.5758 -2.27601 -11.515
LeftLeg  21.5536 1.37368 7.4556
LeftFoot  -9.98791 -0.130337 3.79601
LeftToes  4.86531e-011 4.41684e-011 -2.86034e-011
223
root  4.89276 38.8297 -45.7536 177.548 6.96129 176.06
RightUpLeg  -25.2726 -6.38523 -1.47027
RightLeg  59.2193 10.4203 -11.3361
RightFoot  3.3787 0.401461 -2.88244
RightToes  3.97569e-016 -3.18055e-015 -2.98177e-016
Spine  9.63539 1.20642 -1.36164
Spine1  5.71673 2.45155 -7.14882
HEad  -6.37924 1.03807 -1.14402
LeftShoulder1  -3.88251e-019 9.70628e-020 -3.87848e-018
LeftArm  -20.0256 47.8742 -65.067
LeftForeArm  -0.619297 -17.0946 -2.87353
LeftHand  -1.08912 -4.23294 13.9027
RightShoulder  8.32123 10.8747 38.6778
RightArm  23.5329 -38.9486 22.7694
RightForeArm  -0.1953 20.2638 -9.50569
RightHand  -1.59049 5.15205 -17.3186
LeftUpLeg  -8.91292 -3.13106 -11.0375
LeftLeg  20.1648 1.5343 6.78953
LeftFoot  -11.3609 -0.0797818 3.2393
LeftToes  4.86531e-011 4.41684e-011 -2.86034e-011
224
root  5.07571 38.9479 -46.8019 177.534 5.92827 176.304
RightUpLeg  -26.4743 -7.36915 -0.177787
RightLeg  51.1448 8.35462 -11.3268
RightFoot  1.38 0.310613 -2.52525
RightToes  3.97569e-016 -3.18055e-015 -2.98177e-016
Spine  9.35066 0.680989 -3.93029
Spine1  5.80152 1.07375 -3.81007
HEad  -6.80416 2.05341 -1.7252
LeftShoulder1  -3.88251e-019 9.70628e-020 -3.87848e-018
LeftArm  -12.6902 44.3233 -64.7999
LeftForeArm  -10.6626 -22.8462 -0.1729
LeftHand  -1.08331 -4.73009 13.132
RightShoulder  8.36447 10.8985 38.8325
RightArm  11.5154 -41.312 18.5532
RightForeArm  11.9655 15.4727 -4.29049
RightHand  -1.50012 4.59003 -17.2437
LeftUpLeg  -6.14699 -4.09618 -10.7215
LeftLeg  18.5263 1.68016 6.18654
LeftFoot  -12.3319 -0.0512596 2.76598
LeftToes  4.86531e-011 4.41684e-011 -2.86034e-011
225
root  5.26535 39.0562 -47.8875 177.702 4.79399 176.705
RightUpLeg  -26.1121 -8.86187 1.07904
RightLeg  39.9916 6.81283 -9.36857
RightFoot  0.634388 0.244236 -2.10006
RightToes  3.97569e-016 -3.18055e-015 -2.98177e-016
Spine  8.79094 0.128801 -5.8654
Spine1  6.12669 -0.178257 -0.745191
HEad  -8.00264 2.84634 -2.06382
LeftShoulder1  -3.88251e-019 9.70628e-020 -3.87848e-018
LeftArm  -5.86672 40.6637 -64.4479
LeftForeArm  -20.3742 -27.1146 3.66566
LeftHand  -1.08273 -5.33083 12.3867
RightShoulder  8.36029 10.8952 38.8196
RightArm  5.86192 -43.6802 14.0829
RightForeArm  15.8828 9.92274 -3.29593
RightHand  -1.35772 3.45137 -17.5788
LeftUpLeg  -3.47007 -4.52966 -10.2406
LeftLeg  16.613 1.19308 5.52842
LeftFoot  -12.8791 -0.039572 2.70405
LeftToes  4.86531e-011 4.41684e-011 -2.86034e-011
226
root  5.45748 39.1421 -49.0106 177.685 3.59438 177.422
RightUpLeg  -23.7798 -11.0263 2.5856
RightLeg  26.503 8.67824 -5.22199
RightFoot  0.820661 0.231756 -1.97215
RightToes  3.97569e-016 -3.18055e-015 -2.98177e-016
Spine  8.37026 -0.405047 -6.76878
Spine1  6.64037 -1.25658 1.7565
HEad  -9.69066 3.30929 -2.29444
LeftShoulder1  -3.88251e-019 9.70628e-020 -3.87848e-018
LeftArm  -3.86307 36.7918 -63.9637
LeftForeArm  -23.6299 -29.9205 5.46385
LeftHand  -1.1443 -5.99379 12.3083
RightShoulder  8.27999 10.8502 38.5337
RightArm  5.11944 -46.2058 9.33911
RightForeArm  13.9899 5.05632 -4.15805
RightHand  -1.19574 2.17899 -18.0129
LeftUpLeg  -0.668759 -4.24242 -9.29971
LeftLeg  14.8446 -0.1488 4.82771
LeftFoot  -13.7768 -0.0222592 2.58682
LeftToes  4.86531e-011 4.41684e-011 -2.86034e-011
227
root  5.66139 39.1221 -50.1955 177.062 2.41148 178.222
RightUpLeg  -19.6858 -10.3885 2.80102
RightLeg  13.1278 10.1665 -1.24378
RightFoot  0.980672 0.109793 -0.982974
RightToes  3.97569e-016 -3.18055e-015 -2.98177e-016
Spine  8.34283 -0.79307 -7.13165
Spine1  7.27404 -2.17666 3.91783
HEad  -11.1667 3.45593 -2.58418
LeftShoulder1  -3.88251e-019 9.70628e-020 -3.87848e-018
LeftArm  -3.82342 32.9792 -63.7461
LeftForeArm  -23.3658 -31.4957 5.78501
LeftHand  -1.21428 -6.3676 12.6274
RightShoulder  8.13184 10.7723 37.9893
RightArm  5.48305 -48.7341 3.85952
RightForeArm  12.2417 1.5086 -5.03536
RightHand  -0.949174 0.772345 -17.4616
LeftUpLeg  2.36602 -3.75684 -8.20123
LeftLeg  14.0867 -1.73996 4.50892
LeftFoot  -15.2526 -0.00202845 2.08733
LeftToes  4.86531e-011 4.41684e-011 -2.86034e-011
228
root  5.87975 38.9956 -51.4392 176.08 1.46278 179.079
RightUpLeg  -15.3894 -0.693949 -0.119506
RightLeg  4.20022 1.18991 1.63
RightFoot  2.01627 0.0268181 -0.311567
RightToes  3.97569e-016 -3.18055e-015 -2.98177e-016
Spine  8.48386 -1.04863 -6.92289
Spine1  7.88775 -2.93433 5.87439
HEad  -11.4954 3.41037 -2.70437
LeftShoulder1  -3.88251e-019 9.70628e-020 -3.87848e-018
LeftArm  -3.44491 29.7886 -63.8303
LeftForeArm  -22.713 -31.9682 5.93904
LeftHand  -1.28208 -6.6287 13.0232
RightShoulder  7.97524 10.6988 37.3867
RightArm  8.03965 -51.0483 -2.66727
RightForeArm  12.0258 -0.473536 -5.52693
RightHand  -0.689184 -0.485393 -15.8583
LeftUpLeg  5.43498 -3.86695 -7.10027
LeftLeg  14.2142 -2.43825 4.62653
LeftFoot  -16.7203 0.0128899 1.79254
LeftToes  4.86531e-011 4.41684e-011 -2.86034e-011
229
root  6.10939 38.7961 -52.7109 175.256 1.05333 -179.577
RightUpLeg  -14.059 1.22353 1.2799
RightLeg  3.2394 -1.70557 0.666679
RightFoot  4.19872 0.0978679 -0.787777
RightToes  3.97569e-016 -3.18055e-015 -2.98177e-016
Spine  8.48887 -1.3361 -5.27375
Spine1  8.39396 -3.43329 7.28409
HEad  -10.6214 3.38246 -2.56627
LeftShoulder1  -3.88251e-019 9.70628e-020 -3.87848e-018
LeftArm  -3.03631 27.6709 -63.9566
LeftForeArm  -21.851 -32.0473 5.9989
LeftHand  -1.34596 -6.93215 13.3184
RightShoulder  7.87997 10.6586 37.0064
RightArm  12.4598 -52.6782 -9.77693
RightForeArm  14.4086 -1.20505 -5.44916
RightHand  -0.574172 -0.753916 -13.9876
LeftUpLeg  7.86767 -4.31877 -5.38761
LeftLeg  15.3958 -2.2396 4.79376
LeftFoot  -18.6237 0.0363586 1.79674
LeftToes  4.86531e-011 4.41684e-011 -2.86034e-011
230
root  6.35864 38.4617 -54.0058 174.636 1.30028 -177.584
RightUpLeg  -15.0119 1.49573 3.69995
RightLeg  9.47282 -2.90723 -1.56692
RightFoot  5.58599 0.207567 -1.43058
RightToes  3.97569e-016 -3.18055e-015 -2.98177e-016
Spine  8.36804 -1.75078 -2.21319
Spine1  8.77454 -3.60788 7.99124
HEad  -9.63902 3.65008 -2.61085
LeftShoulder1  -3.88251e-019 9.70628e-020 -3.87848e-018
LeftArm  -3.25812 26.9202 -64.1081
LeftForeArm  -20.8905 -32.4855 6.16172
LeftHand  -1.37641 -7.10719 13.4212
RightShoulder  7.85786 10.6397 36.9391
RightArm  16.382 -53.1036 -15.4135
RightForeArm  18.9294 -1.54446 -5.20408
RightHand  -0.577381 0.0184615 -12.1164
LeftUpLeg  8.63085 -3.10969 -2.34809
LeftLeg  19.7473 -3.40316 5.02196
LeftFoot  -21.7928 -0.0189392 0.636421
LeftToes  4.86531e-011 4.41684e-011 -2.86034e-011
231
root  6.63104 38.1119 -55.2877 174.049 2.03879 -175.487
RightUpLeg  -15.6831 -0.633134 6.68158
RightLeg  16.0935 0.0124443 -3.06691
RightFoot  4.27796 0.26744 -1.90422
RightToes  3.97569e-016 -3.18055e-015 -2.98177e-016
Spine  8.52732 -2.1072 0.554111
Spine1  8.87619 -3.68281 8.65407
HEad  -9.40384 4.43736 -3.09143
LeftShoulder1  -3.88251e-019 9.70628e-020 -3.87848e-018
LeftArm  -5.02326 27.862 -64.6032
LeftForeArm  -19.9184 -33.5501 6.50286
LeftHand  -1.41401 -7.21985 13.6534
RightShoulder  7.84639 10.6147 36.9386
RightArm  17.6862 -52.4942 -17.6255
RightForeArm  23.6771 -1.99874 -5.20199
RightHand  -0.564941 0.932783 -10.1754
LeftUpLeg  7.68028 -0.312094 1.48726
LeftLeg  27.5846 -6.11982 5.19861
LeftFoot  -23.0746 -0.27602 -2.54178
LeftToes  4.86531e-011 4.41684e-011 -2.86034e-011
232
root  6.90502 37.8885 -56.4938 173.574 2.62302 -173.778
RightUpLeg  -15.4331 -4.43451 9.54969
RightLeg  20.5563 4.7625 -3.62094
RightFoot  0.251917 0.289213 -2.53539
RightToes  3.97569e-016 -3.18055e-015 -2.98177e-016
Spine  9.22534 -2.44832 2.06359
Spine1  8.43518 -3.97939 10.1436
HEad  -9.54208 5.55857 -3.47331
LeftShoulder1  -3.88251e-019 9.70628e-020 -3.87848e-018
LeftArm  -8.0936 30.3968 -65.8672
LeftForeArm  -19.5106 -34.7408 6.86493
LeftHand  -1.56401 -7.56305 14.6497
RightShoulder  7.79972 10.5823 36.7793
RightArm  16.832 -51.5729 -16.6752
RightForeArm  26.4461 -2.23311 -5.32546
RightHand  -0.512955 1.27472 -8.78856
LeftUpLeg  4.44075 1.86208 4.92314
LeftLeg  38.4812 -8.13888 5.62788
LeftFoot  -18.7738 -0.35482 -6.54021
LeftToes  4.86531e-011 4.41684e-011 -2.86034e-011
233
root  7.15992 37.8248 -57.6371 173.306 2.55556 -172.71
RightUpLeg  -14.3538 -6.04246 10.9065
RightLeg  23.0837 6.10495 -3.78894
RightFoot  -3.68192 0.255538 -2.9836
RightToes  3.97569e-016 -3.18055e-015 -2.98177e-016
Spine  9.94983 -2.81522 2.69613
Spine1  7.65591 -4.36892 11.8749
HEad  -9.32337 6.36701 -3.1856
LeftShoulder1  -3.88251e-019 9.70628e-020 -3.87848e-018
LeftArm  -10.8924 33.4187 -68.0263
LeftForeArm  -20.1647 -35.0882 6.93622
LeftHand  -1.77774 -7.98926 16.0824
RightShoulder  7.78561 10.5824 36.7086
RightArm  15.3083 -50.82 -13.9259
RightForeArm  25.9898 -1.73611 -5.18794
RightHand  -0.496112 1.11021 -8.7126
LeftUpLeg  -0.931535 3.02164 7.18246
LeftLeg  49.7637 -8.72829 7.19422
LeftFoot  -10.7138 0.151409 -9.3186
LeftToes  4.86531e-011 4.41684e-011 -2.86034e-011
